<?xml version="1.0" encoding="UTF-8"?>
<svg version="1.1" xmlns="http://www.w3.org/2000/svg" width="189" height="41">
<path d="M0 0 C1.07378906 -0.00644531 2.14757812 -0.01289062 3.25390625 -0.01953125 C6.62698146 0.86202092 8.93329779 1.92777412 11.30151367 4.54125977 C13.95996256 9.85644352 13.0268382 16.37610395 12.8125 22.1875 C12.78237301 23.60541235 12.75500197 25.02338609 12.73046875 26.44140625 C12.66466243 29.89972213 12.56129659 33.35571818 12.4375 36.8125 C10.43795254 36.85504356 8.43708364 36.85330783 6.4375 36.8125 C4.66259454 35.03759454 5.20250027 32.43465098 5.12109375 30.02734375 C5.06393188 28.44747681 5.06393188 28.44747681 5.00561523 26.83569336 C4.96251221 25.48741455 4.91940918 24.13913574 4.875 22.75 C4.730625 18.480625 4.58625 14.21125 4.4375 9.8125 C4.1075 18.7225 3.7775 27.6325 3.4375 36.8125 C1.1275 36.8125 -1.1825 36.8125 -3.5625 36.8125 C-3.8925 27.9025 -4.2225 18.9925 -4.5625 9.8125 C-6.33740546 11.58740546 -5.79749973 14.19034902 -5.87890625 16.59765625 C-5.92080078 17.76748047 -5.96269531 18.93730469 -6.00585938 20.14257812 C-6.04517578 21.37427734 -6.08449219 22.60597656 -6.125 23.875 C-6.18977539 25.72834961 -6.18977539 25.72834961 -6.25585938 27.61914062 C-6.36234198 30.68347335 -6.46435424 33.74789073 -6.5625 36.8125 C-8.56204746 36.85504356 -10.56291636 36.85330783 -12.5625 36.8125 C-15.34702039 34.02797961 -13.9955587 25.92505601 -14.0625 22.1875 C-14.11664063 20.91519531 -14.17078125 19.64289062 -14.2265625 18.33203125 C-14.38091537 7.75885946 -14.38091537 7.75885946 -10.44140625 3.46484375 C-7.06017043 0.75951243 -4.3898905 -0.11093586 0 0 Z " fill="#182540" transform="translate(15.5625,2.1875)"/>
<path d="M0 0 C2.31 0 4.62 0 7 0 C7 8.91 7 17.82 7 27 C7.66 27 8.32 27 9 27 C9 18.09 9 9.18 9 0 C11.31 0 13.62 0 16 0 C16.1490685 4.16245107 16.25754261 8.32346268 16.32958984 12.48779297 C16.35964089 13.90213097 16.40049623 15.31628446 16.45263672 16.72998047 C16.8731057 28.42891153 16.8731057 28.42891153 14.72558594 32.29321289 C12.48148714 34.62640145 10.77209626 35.94209278 7.5 36.1875 C0.98096729 33.09095946 0.98096729 33.09095946 -1 30 C-1.7927472 25.08257443 -1.60807001 20.21019957 -1.4375 15.25 C-1.41596128 13.88415392 -1.39705411 12.51826365 -1.38085938 11.15234375 C-1.19573653 1.19573653 -1.19573653 1.19573653 0 0 Z " fill="#38435A" transform="translate(97,3)"/>
<path d="M0 0 C2.31 0 4.62 0 7 0 C7 11.88 7 23.76 7 36 C-3 36 -3 36 -7.125 33.25 C-10.6810307 29.112533 -10.88449428 25.12783541 -10.55859375 19.8203125 C-9.69678753 15.46909509 -8.42567919 13.81666956 -5 11 C-2.1875 10.125 -2.1875 10.125 0 10 C0 6.7 0 3.4 0 0 Z M-2 18 C-2 20.97 -2 23.94 -2 27 C-1.01 27.495 -1.01 27.495 0 28 C0 24.7 0 21.4 0 18 C-0.66 18 -1.32 18 -2 18 Z " fill="#25314B" transform="translate(59,3)"/>
<path d="M0 0 C1 1 1 1 1.09765625 4.59765625 C1.0909822 6.08596867 1.07902183 7.57426432 1.0625 9.0625 C1.05798828 9.82111328 1.05347656 10.57972656 1.04882812 11.36132812 C1.0370068 13.24091871 1.01907078 15.12046899 1 17 C-1.31 17.33 -3.62 17.66 -6 18 C-4.5459375 17.9690625 -4.5459375 17.9690625 -3.0625 17.9375 C0 18 0 18 1 19 C1.04092937 21.33297433 1.04241723 23.66705225 1 26 C-9.69825414 27.02794613 -9.69825414 27.02794613 -13.6875 23.875 C-17.14374049 19.66302179 -16.82340425 14.50957442 -16.5703125 9.3046875 C-15.89520334 5.39275358 -15.12181912 3.29876463 -11.99609375 0.84765625 C-8.12446936 -0.79645822 -4.10453567 -0.61065597 0 0 Z " fill="#1E2B45" transform="translate(188,13)"/>
<path d="M0 0 C1 1 1 1 1.09765625 4.59765625 C1.0909822 6.08596867 1.07902183 7.57426432 1.0625 9.0625 C1.05798828 9.82111328 1.05347656 10.57972656 1.04882812 11.36132812 C1.0370068 13.24091871 1.01907078 15.12046899 1 17 C-1.31 17.33 -3.62 17.66 -6 18 C-4.5459375 17.9690625 -4.5459375 17.9690625 -3.0625 17.9375 C0 18 0 18 1 19 C1.04092937 21.33297433 1.04241723 23.66705225 1 26 C-9.69825414 27.02794613 -9.69825414 27.02794613 -13.6875 23.875 C-17.14374049 19.66302179 -16.82340425 14.50957442 -16.5703125 9.3046875 C-15.89520334 5.39275358 -15.12181912 3.29876463 -11.99609375 0.84765625 C-8.12446936 -0.79645822 -4.10453567 -0.61065597 0 0 Z M-7 7 C-7 10 -7 10 -7 10 Z " fill="#2E3A53" transform="translate(47,13)"/>
<path d="M0 0 C0 5.61 0 11.22 0 17 C-1.98 17.33 -3.96 17.66 -6 18 C-4.02 18 -2.04 18 0 18 C0 20.64 0 23.28 0 26 C-4.32686247 26.54847552 -8.25324712 26.89333056 -12.22265625 24.86328125 C-15.31640659 22.2396285 -16.75840392 20.09681658 -17.63671875 16.109375 C-17.91933979 11.11012276 -17.5964683 6.93483159 -14.6875 2.75 C-10.46239805 -1.45474001 -5.58907648 -0.47711629 0 0 Z " fill="#3C475E" transform="translate(132,13)"/>
<path d="M0 0 C9.13786325 -1.02435122 9.13786325 -1.02435122 13.06640625 1.13671875 C16.60012132 4.65340387 17.47910318 8.08548388 17.8125 13 C17.57073046 17.27663445 16.9290624 19.97304347 14.125 23.25 C10.9903435 25.90834319 8.63897174 26.4085066 4.5625 26.4375 C3.056875 26.293125 1.55125 26.14875 0 26 C0 20.39 0 14.78 0 9 C3.465 8.505 3.465 8.505 7 8 C4.69 7.67 2.38 7.34 0 7 C0 4.69 0 2.38 0 0 Z M7 16 C8 18 8 18 8 18 Z " fill="#3C475E" transform="translate(78,13)"/>
<path d="M0 0 C0 2.31 0 4.62 0 7 C-2.64 7.33 -5.28 7.66 -8 8 C-5.36 8.33 -2.72 8.66 0 9 C0.78693051 18.00598251 0.78693051 18.00598251 -2.375 22 C-3.674375 22.99 -3.674375 22.99 -5 24 C-5.66 24.66 -6.32 25.32 -7 26 C-9.3828125 26.1953125 -9.3828125 26.1953125 -12.125 26.125 C-13.49011719 26.09792969 -13.49011719 26.09792969 -14.8828125 26.0703125 C-15.58148438 26.04710938 -16.28015625 26.02390625 -17 26 C-17 23.69 -17 21.38 -17 19 C-14 18 -14 18 -10 18 C-12.31 17.67 -14.62 17.34 -17 17 C-17.87410072 7.9028777 -17.87410072 7.9028777 -16.05078125 3.93359375 C-11.71049887 -1.22748702 -6.27239028 -0.60268519 0 0 Z " fill="#465066" transform="translate(170,13)"/>
<path d="M0 0 C11 0 11 0 14.6875 2.3125 C17.84637369 6.06875382 17.47398109 10.10748061 17.2109375 14.8046875 C17.14132813 15.52914063 17.07171875 16.25359375 17 17 C14.69 17 12.38 17 10 17 C9.34 14.03 8.68 11.06 8 8 C8.01160156 8.71285156 8.02320313 9.42570312 8.03515625 10.16015625 C8.08606026 15.56325366 7.94608271 20.67828475 7 26 C4.69 26 2.38 26 0 26 C0 17.42 0 8.84 0 0 Z " fill="#1B2742" transform="translate(134,13)"/>
<path d="M0 0 C2.31 0 4.62 0 7 0 C8.32411006 2.64822012 8.01892401 4.48938194 7.87890625 7.4453125 C7.83056641 8.52167969 7.78222656 9.59804688 7.73242188 10.70703125 C7.67634766 11.83496094 7.62027344 12.96289062 7.5625 14.125 C7.51029297 15.26066406 7.45808594 16.39632813 7.40429688 17.56640625 C7.27435544 20.37786631 7.13938086 23.18899465 7 26 C5.00045254 26.04254356 2.99958364 26.04080783 1 26 C0 25 0 25 -0.11352539 22.59155273 C-0.10828857 21.54942627 -0.10305176 20.5072998 -0.09765625 19.43359375 C-0.09443359 18.30888672 -0.09121094 17.18417969 -0.08789062 16.02539062 C-0.07951172 14.84138672 -0.07113281 13.65738281 -0.0625 12.4375 C-0.05798828 11.24962891 -0.05347656 10.06175781 -0.04882812 8.83789062 C-0.03699675 5.89187774 -0.02051287 2.94596319 0 0 Z " fill="#14213D" transform="translate(68,13)"/>
<path d="M0 0 C0.99 0.66 1.98 1.32 3 2 C3.34057617 4.98095703 3.34057617 4.98095703 3.29296875 8.7578125 C3.28872391 9.42086395 3.28447906 10.08391541 3.28010559 10.76705933 C3.26329971 12.88678441 3.22564701 15.00556188 3.1875 17.125 C3.17245549 18.56118419 3.15876668 19.99738328 3.14648438 21.43359375 C3.1133909 24.95603764 3.0615968 28.47792636 3 32 C1.00045254 32.04254356 -1.00041636 32.04080783 -3 32 C-4 31 -4 31 -4.11352539 28.49975586 C-4.10828857 27.41573486 -4.10305176 26.33171387 -4.09765625 25.21484375 C-4.09443359 24.04501953 -4.09121094 22.87519531 -4.08789062 21.66992188 C-4.07951172 20.43822266 -4.07113281 19.20652344 -4.0625 17.9375 C-4.05798828 16.70193359 -4.05347656 15.46636719 -4.04882812 14.19335938 C-4.03699608 11.12885883 -4.02051173 8.06445279 -4 5 C-3.67 5 -3.34 5 -3 5 C-3 13.25 -3 21.5 -3 30 C-1.68 30 -0.36 30 1 30 C0.67 20.1 0.34 10.2 0 0 Z " fill="#777F8F" transform="translate(25,7)"/>
<path d="M0 0 C0.33 0 0.66 0 1 0 C1 8.91 1 17.82 1 27 C2.32 27 3.64 27 5 27 C5 18.75 5 10.5 5 2 C6.65 1.34 8.3 0.68 10 0 C9.01 1.485 9.01 1.485 8 3 C7.63155492 5.8086043 7.63155492 5.8086043 7.5859375 8.98046875 C7.54726562 10.14384766 7.50859375 11.30722656 7.46875 12.50585938 C7.4378125 13.72080078 7.406875 14.93574219 7.375 16.1875 C7.33632812 17.41404297 7.29765625 18.64058594 7.2578125 19.90429688 C7.16343897 22.93604656 7.07785451 25.96778841 7 29 C5.00045254 29.04254356 2.99958364 29.04080783 1 29 C0 28 0 28 -0.11352539 25.31616211 C-0.10828857 24.14835205 -0.10305176 22.98054199 -0.09765625 21.77734375 C-0.09443359 20.51728516 -0.09121094 19.25722656 -0.08789062 17.95898438 C-0.07953403 16.61848891 -0.07106907 15.27799412 -0.0625 13.9375 C-0.0574866 12.59310058 -0.05292342 11.2486994 -0.04882812 9.90429688 C-0.03699488 6.60282059 -0.02050971 3.30143197 0 0 Z " fill="#6D7687" transform="translate(2,10)"/>
<path d="M0 0 C0.99 0 1.98 0 3 0 C3 9.57 3 19.14 3 29 C0.69 29 -1.62 29 -4 29 C-4 28.34 -4 27.68 -4 27 C-2.68 27 -1.36 27 0 27 C0 18.09 0 9.18 0 0 Z " fill="#878E9C" transform="translate(16,10)"/>
<path d="M0 0 C0.66 0 1.32 0 2 0 C2 11.88 2 23.76 2 36 C-1.3 36 -4.6 36 -8 36 C-8.66 35.01 -9.32 34.02 -10 33 C-6.7 33.33 -3.4 33.66 0 34 C0 22.78 0 11.56 0 0 Z " fill="#949BA7" transform="translate(64,3)"/>
<path d="M0 0 C0.33 0 0.66 0 1 0 C1 7.92 1 15.84 1 24 C2.32 24 3.64 24 5 24 C5 16.08 5 8.16 5 0 C5.99 0.33 6.98 0.66 8 1 C7.67 9.25 7.34 17.5 7 26 C5.02 26 3.04 26 1 26 C0 25 0 25 -0.11352539 22.59155273 C-0.10828857 21.54942627 -0.10305176 20.5072998 -0.09765625 19.43359375 C-0.09443359 18.30888672 -0.09121094 17.18417969 -0.08789062 16.02539062 C-0.07951172 14.84138672 -0.07113281 13.65738281 -0.0625 12.4375 C-0.05798828 11.24962891 -0.05347656 10.06175781 -0.04882812 8.83789062 C-0.03699675 5.89187774 -0.02051287 2.94596319 0 0 Z " fill="#71798A" transform="translate(68,13)"/>
<path d="M0 0 C0.33 0 0.66 0 1 0 C1 7.92 1 15.84 1 24 C2.32 24 3.64 24 5 24 C5 18.06 5 12.12 5 6 C5.99 6.33 6.98 6.66 8 7 C8.09507063 13.43311296 8.15316726 19.65758005 7 26 C4.69 26 2.38 26 0 26 C0 17.42 0 8.84 0 0 Z " fill="#7C8393" transform="translate(134,13)"/>
<path d="M0 0 C2.31 0 4.62 0 7 0 C7 8.91 7 17.82 7 27 C6.01 26.67 5.02 26.34 4 26 C4 17.75 4 9.5 4 1 C2.68 0.67 1.36 0.34 0 0 Z " fill="#8B92A0" transform="translate(97,3)"/>
<path d="M0 0 C2.33294775 -0.04241723 4.66702567 -0.04092937 7 0 C7.33 0.33 7.66 0.66 8 1 C7.71269945 3.33944736 7.38063221 5.6739143 7 8 C5.00045254 8.04254356 2.99958364 8.04080783 1 8 C0 7 0 7 -0.0625 3.4375 C-0.041875 2.303125 -0.02125 1.16875 0 0 Z " fill="#687082" transform="translate(68,3)"/>
<path d="M0 0 C0.66 0.33 1.32 0.66 2 1 C2 6.28 2 11.56 2 17 C-1.63 17 -5.26 17 -9 17 C-9 16.34 -9 15.68 -9 15 C-6.03 15 -3.06 15 0 15 C0 10.05 0 5.1 0 0 Z " fill="#CACDD3" transform="translate(46,13)"/>
<path d="M0 0 C0.66 0.33 1.32 0.66 2 1 C2 6.28 2 11.56 2 17 C-1.63 17 -5.26 17 -9 17 C-9 16.34 -9 15.68 -9 15 C-6.03 15 -3.06 15 0 15 C0 10.05 0 5.1 0 0 Z " fill="#BFC3CA" transform="translate(187,13)"/>
<path d="M0 0 C0.99 0.33 1.98 0.66 3 1 C3 3.31 3 5.62 3 8 C1.20906809 8.08086147 -0.58289628 8.13912702 -2.375 8.1875 C-3.87160156 8.23970703 -3.87160156 8.23970703 -5.3984375 8.29296875 C-6.25695312 8.19628906 -7.11546875 8.09960938 -8 8 C-8.66 7.01 -9.32 6.02 -10 5 C-6.37 5.33 -2.74 5.66 1 6 C0.67 4.02 0.34 2.04 0 0 Z " fill="#ADB2BB" transform="translate(186,31)"/>
<path d="M0 0 C0.99 0.66 1.98 1.32 3 2 C3.29296875 4.6015625 3.29296875 4.6015625 3.1875 7.625 C3.16042969 8.62789062 3.13335937 9.63078125 3.10546875 10.6640625 C3.07066406 11.43492188 3.03585938 12.20578125 3 13 C0.69 13 -1.62 13 -4 13 C-4 12.34 -4 11.68 -4 11 C-2.35 11 -0.7 11 1 11 C0.67 7.37 0.34 3.74 0 0 Z " fill="#B2B7C0" transform="translate(148,17)"/>
</svg>
